<?xml version="1.0" encoding="utf-8"?>
<!-- Generator: Adobe Illustrator 21.0.0, SVG Export Plug-In . SVG Version: 6.00 Build 0)  -->
<svg version="1.1" id="Layer_1" xmlns="http://www.w3.org/2000/svg" xmlns:xlink="http://www.w3.org/1999/xlink" x="0px" y="0px"
	 viewBox="0 0 145 45.4" style="enable-background:new 0 0 145 45.4;" xml:space="preserve">
<style type="text/css">
	.st0{fill:#FFFFFF;}
</style>
<g>
	<path class="st0" d="M22.9,7.9c2.3,1.2,4.1,2.9,5.3,5c1.3,2.1,1.9,4.6,1.9,7.4c0,2.8-0.6,5.2-1.9,7.4c-1.3,2.2-3.1,3.8-5.4,5
		c-2.3,1.2-5,1.8-8,1.8H2.9V6.2h12.2C18,6.2,20.6,6.8,22.9,7.9z M10.1,28.8h5.1c1.5,0,2.8-0.3,3.9-1c1.1-0.7,2-1.7,2.7-3
		c0.6-1.3,1-2.7,1-4.4c0-1.6-0.3-3.1-1-4.4c-0.7-1.3-1.6-2.3-2.8-3c-1.2-0.7-2.6-1.1-4.1-1.1h-4.8V28.8z"/>
	<path class="st0" d="M40.1,3.8c0.7,0.7,1,1.6,1,2.7s-0.3,2-1,2.7c-0.7,0.7-1.6,1-2.7,1c-1.1,0-2-0.3-2.7-1c-0.7-0.7-1-1.6-1-2.7
		s0.3-2,1-2.7c0.7-0.7,1.6-1,2.7-1C38.5,2.7,39.4,3.1,40.1,3.8z M33.9,34.5V12.7h7v21.8H33.9z"/>
	<path class="st0" d="M67.4,32.6c0,2-0.5,3.8-1.5,5.4c-1,1.5-2.4,2.7-4.2,3.5c-1.8,0.8-3.9,1.2-6.2,1.2c-1.8,0-3.6-0.3-5.3-0.8
		c-1.7-0.5-3.2-1.2-4.5-2.1l2.4-4.7c1,0.7,2.1,1.2,3.3,1.6c1.2,0.4,2.3,0.6,3.5,0.6c1.7,0,3-0.4,4-1.2c1-0.8,1.4-1.9,1.4-3.3v-2.3
		c-0.7,0.9-1.6,1.7-2.7,2.2c-1.1,0.5-2.3,0.8-3.6,0.8c-1.8,0-3.5-0.4-4.9-1.3c-1.4-0.9-2.5-2.1-3.3-3.7c-0.8-1.6-1.2-3.4-1.2-5.5
		c0-2.1,0.4-3.9,1.2-5.4c0.8-1.6,1.9-2.8,3.3-3.6c1.4-0.9,3.1-1.3,4.9-1.3c1.3,0,2.5,0.3,3.6,0.8c1.1,0.5,2,1.2,2.7,2.2v-2.7h7V32.6
		z M59.1,26.8c0.8-1,1.3-2.3,1.3-3.8c0-1.6-0.4-2.9-1.3-3.9c-0.8-1-1.9-1.5-3.3-1.5c-1.4,0-2.5,0.5-3.3,1.5c-0.9,1-1.3,2.3-1.3,3.9
		c0,1.6,0.4,2.8,1.3,3.8c0.9,1,2,1.5,3.3,1.5C57.2,28.3,58.3,27.8,59.1,26.8z"/>
	<path class="st0" d="M92.8,7.9c2.3,1.2,4.1,2.9,5.3,5c1.3,2.1,1.9,4.6,1.9,7.4c0,2.8-0.6,5.2-1.9,7.4c-1.3,2.2-3.1,3.8-5.4,5
		c-2.3,1.2-5,1.8-8,1.8H72.7V6.2h12.2C87.9,6.2,90.5,6.8,92.8,7.9z M80,28.8h5.1c1.5,0,2.8-0.3,3.9-1c1.1-0.7,2-1.7,2.7-3
		c0.6-1.3,1-2.7,1-4.4c0-1.6-0.3-3.1-1-4.4c-0.7-1.3-1.6-2.3-2.8-3c-1.2-0.7-2.6-1.1-4.1-1.1H80V28.8z"/>
	<path class="st0" d="M120.6,14.5c1.7,1.4,2.5,3.3,2.5,5.8v14.3h-6.8V32c-0.7,0.9-1.6,1.6-2.8,2.1c-1.1,0.5-2.4,0.7-3.9,0.7
		c-2.3,0-4.1-0.6-5.5-1.9c-1.4-1.3-2-2.9-2-4.9c0-2.1,0.7-3.7,2.2-4.8c1.4-1.1,3.5-1.7,6.2-1.8h5.8v-0.3c0-1.1-0.4-1.9-1.1-2.5
		s-1.8-0.9-3.2-0.9c-0.9,0-2,0.2-3.1,0.5c-1.1,0.3-2.3,0.8-3.4,1.4l-2-4.6c1.8-0.8,3.5-1.5,5.1-1.9c1.6-0.4,3.3-0.6,5-0.6
		C116.6,12.4,118.9,13.1,120.6,14.5z M114.6,29.3c0.8-0.6,1.4-1.3,1.6-2.2v-1.9h-4.4c-1.1,0-1.8,0.2-2.4,0.6s-0.8,1-0.8,1.8
		c0,0.8,0.3,1.4,0.8,1.9c0.5,0.5,1.3,0.7,2.3,0.7C112.8,30.1,113.8,29.8,114.6,29.3z"/>
	<path class="st0" d="M139.5,34.4c-1,0.3-2.1,0.4-3.1,0.4c-2.2,0-3.9-0.6-5.2-1.8c-1.3-1.2-2-2.9-2-5.1v-9.6h-3v-4.6h3V7.6h7v6h5.7
		v4.6h-5.7v8.5c0,1.6,0.6,2.4,1.9,2.4c0.8,0,1.7-0.2,2.8-0.7l1.4,4.9C141.4,33.8,140.5,34.2,139.5,34.4z"/>
</g>
</svg>
